# xmcd
#
# Track frame offsets: 
#        150
#        26755
#        60309
#        91190
#        114463
#        165929
#        201384
#        214768
#        240175
#        288973
#
# Disc length: 4406 seconds
#
# Revision: 0
# Processed by: cddbd v1.5.2PL0 Copyright (c) Steve Scherf et al.
# Submitted via: ExactAudioCopy v1.0b1
#
DISCID=7b11340a
DTITLE=Gov't Mule - Calvin Theatre Northampton, MA [disk 1]
DYEAR=1900
DGENRE=Blues Rock
TTITLE0=No Reward
TTITLE1=Scared To Live
TTITLE2=Thelonius Beck
TTITLE3=Little Toy Brain
TTITLE4=Time To Confess
TTITLE5=Trane
TTITLE6=Eternity's Breath
TTITLE7=St. Stephen Jam
TTITLE8=Captured
TTITLE9=Slackjaw Jezebel
EXTD=
EXTT0=
EXTT1=
EXTT2=
EXTT3=
EXTT4=
EXTT5=
EXTT6=
EXTT7=
EXTT8=
EXTT9=
PLAYORDER=
